<mxfile host="app.diagrams.net" modified="2023-03-31T07:49:55.011Z" agent="Mozilla/5.0 (Windows NT 10.0; Win64; x64) AppleWebKit/537.36 (KHTML, like Gecko) Chrome/111.0.0.0 Safari/537.36" version="21.1.2" etag="aH546szV1i-U596vHwz-" type="github">
  <diagram name="第 1 页" id="4Bv-psB0P2iMDV7kyLn9">
    <mxGraphModel>
      <root>
        <mxCell id="0" />
        <mxCell id="1" parent="0" />
      </root>
    </mxGraphModel>
  </diagram>
</mxfile>
